<?xml version="1.0" standalone="no"?>
<!DOCTYPE svg PUBLIC "-//W3C//DTD SVG 20010904//EN"
 "http://www.w3.org/TR/2001/REC-SVG-20010904/DTD/svg10.dtd">
<svg version="1.0" xmlns="http://www.w3.org/2000/svg"
 width="200.000000pt" height="200.000000pt" viewBox="0 0 194.000000 194.000000"
 preserveAspectRatio="xMidYMid meet">
<g transform="translate(-3.000000,203.000000) scale(0.100000,-0.100000)"
fill="#000000">
<path d="M885 2020 c-390 -44 -720 -333 -822 -717 -36 -135 -38 -336 -5 -466
90 -360 361 -631 719 -719 124 -30 322 -30 446 0 358 88 630 361 719 719 29
118 31 313 4 428 -41 178 -118 322 -240 452 -114 121 -227 197 -378 253 -124
46 -303 66 -443 50z m680 -531 c26 -24 45 -50 45 -63 0 -24 -805 -836 -830
-836 -19 0 -390 370 -390 390 0 22 81 100 105 100 13 0 67 -47 149 -129 l129
-130 361 355 c199 195 367 354 374 354 7 0 33 -19 57 -41z"/>
</g>
</svg>
