<svg version="1" xmlns="http://www.w3.org/2000/svg" width="933.333" height="933.333" viewBox="0 0 700.000000 700.000000"><path d="M319 2.7c-32.6 2.5-68.1 11-98.5 23.6-45.3 18.6-81.9 43-116.5 77.7-30.5 30.4-52.6 61.9-70.7 100.5C10 254.1.8 300.4 2.3 361.3c1 41.7 6.2 70.4 19.2 105.5C61.7 575.7 145.8 654.2 256 685.9c24 6.9 40.2 9.5 72.3 11.3 40.5 2.2 81.5-1.5 112.7-10.3 78.6-22.3 144.6-68.1 191.6-133.1 32-44.1 54.9-99.5 61.9-149.3 2.7-19.5 3.8-42.5 3.2-66.5-1-38.7-4.6-60.3-15.9-95-18.4-56.5-46.2-100.2-92.4-145.1-27.1-26.3-53.7-45.2-85.9-60.9C463.3 17.4 428.8 8 380 3.4c-13.8-1.2-48.7-1.7-61-.7zm225.7 184.9c13.2 10.6 25.3 24.6 25.3 29.3 0 .9-2 4.1-4.3 7.1-24.6 31.2-268.6 276.6-291.1 292.8l-4.5 3.2-6-5c-29.2-24.3-129-125-133.3-134.6-1.5-3.3 1.2-8 9.9-17.3 12.3-13.3 23.5-21 28.6-19.7 6 1.5 38.8 31.6 77.5 71l21.3 21.8 46.5-45.9C435.3 271.5 507.4 202 527.9 184.7c5.2-4.5 5.5-4.6 8.2-3.1 1.6.8 5.5 3.5 8.6 6z"/></svg>